<?xml version="1.0" encoding="utf-8"?>
<!-- Svg Vector Icons : http://www.onlinewebfonts.com/icon -->
<!DOCTYPE svg PUBLIC "-//W3C//DTD SVG 1.1//EN" "http://www.w3.org/Graphics/SVG/1.1/DTD/svg11.dtd">
<svg version="1.1" xmlns="http://www.w3.org/2000/svg" xmlns:xlink="http://www.w3.org/1999/xlink" x="0px" y="0px" viewBox="0 0 1000 1000" enable-background="new 0 0 1000 1000" xml:space="preserve">
<metadata> Svg Vector Icons : http://www.onlinewebfonts.com/icon </metadata>
<g><g transform="translate(0.000000,512.000000) scale(0.100000,-0.100000)"><path d="M4526,5007.3c-1477.3-151.4-2791.7-942.7-3625.1-2186.2c-306.6-459.9-594-1143.9-703.2-1682.3C115.3,732.6,100,573.6,100,123.3c0-450.3,15.3-605.5,97.7-1015.5C305-1422.9,592.4-2108.9,900.9-2574.5c1293.3-1935.2,3724.8-2709.3,5876.5-1870.1c645.7,252.9,1239.7,649.5,1734,1159.2c1686.1,1737.9,1856.6,4414.6,402.4,6349.7c-776,1034.7-1921.8,1714.8-3228.5,1916C5445.7,5016.9,4771.3,5034.1,4526,5007.3z M5637.3,4675.8c822-122.6,1611.4-465.6,2249.4-981c906.3-730,1507.9-1808.7,1670.8-2996.7c15.3-101.5,26.8-354.5,26.8-574.8c0-413.9-21.1-613.1-97.7-977.2c-107.3-505.8-367.9-1120.9-655.3-1552c-749.2-1122.8-1910.3-1847.1-3261.1-2032.9c-235.7-34.5-914-34.5-1149.6,0c-854.6,116.9-1663.1,463.7-2316.5,990.6c-906.3,730-1506,1806.8-1672.7,2996.7c-32.6,237.6-32.6,933.1,1.9,1159.2c220.3,1507.9,1074.9,2749.5,2377.8,3458.4c557.6,302.7,1082.6,457.9,1839.4,544.2C4790.4,4725.6,5453.4,4702.6,5637.3,4675.8z"/><path d="M4583.5,4440.1c-189.7-17.2-574.8-92-781.7-151.4C2370.5,3876.8,1242,2748.3,830,1317C688.2,826.5,630.7,194.2,682.5-300.1c82.4-799,369.8-1532.8,850.7-2182.3c174.4-233.8,622.7-682.1,856.5-856.5c649.5-480.9,1383.4-768.3,2182.4-850.7c302.7-30.7,848.8-13.4,1142,38.3C7543.8-3829.5,8948.2-2425,9270.1-595.2c51.7,293.2,69,839.2,38.3,1142c-82.4,799-369.8,1532.8-850.7,2182.4c-174.4,233.8-622.7,682.1-856.5,856.5c-638,473.3-1371.9,762.6-2149.8,846.9C5279,4451.6,4759.8,4455.5,4583.5,4440.1z M5432.3,4125.9c281.7-30.7,542.2-88.1,827.7-182C7285.1,3604.8,8128.2,2869,8607.2,1897.6c549.9-1115.1,549.9-2435.3,0-3546.6c-613.1-1241.6-1804.9-2078.9-3180.6-2232.2c-220.3-24.9-641.9-24.9-862.2,0c-1373.8,153.3-2579,998.3-3182.5,2232.2C623.1-97,929.6,1748.1,2150.2,2968.6c641.9,640,1500.2,1057.6,2385.5,1157.3C4746.4,4148.9,5217.7,4150.8,5432.3,4125.9z"/><path d="M2792,2211.8l-887.1-902.5l352.5-343L2610,625.3l293.1,289.3l291.2,291.2V414.6v-789.4H3683h488.6v789.4v791.3l293.1-291.2L4756,625.3l352.6,341.1l352.5,343l-887.1,902.5c-488.6,494.3-889,900.5-891,900.5C3681.1,3112.3,3280.6,2706.1,2792,2211.8z M4598.8,1746.2l423.4-438.8L4892,1181l-128.4-124.5l-450.3,448.3L3865,1953.1V941.5V-68.3h-182h-182V941.5v1011.7l-450.3-450.3l-450.3-450.3L2472,1182.9l-130.3,128.4l220.3,224.2c120.7,124.5,423.4,431.1,670.6,680.2l450.3,456l245.2-245.2C4064.3,2292.3,4365.1,1985.7,4598.8,1746.2z"/><path d="M5819.4-167.9v-791.3L5528.1-668L5235-378.7l-352.5-343l-352.5-343l887.1-900.5c486.7-494.3,889-900.5,891-900.5c1.9,0,402.4,404.3,889,900.5l887.1,900.5l-352.6,343l-350.6,344.9L7089.7-668l-293.2-291.2v791.3v789.4h-488.6h-488.6V-167.9z M6490-694.8v-1011.7l446.4,446.4l446.4,444.5L7515-938.2l134.1-122.6L7448-1269.6c-111.1-113.1-412-419.6-670.6-680.2L6307.9-2425l-341.1,341c-187.8,185.9-490.5,492.4-670.6,682.1l-329.6,341.1l132.2,126.4l132.2,124.5l440.7-444.5c243.3-243.3,444.5-442.6,448.4-442.6c1.9,0,5.7,452.2,5.7,1005.9V314.9h182h182V-694.8z"/></g></g>
</svg>